# xmcd
#
# Track frame offsets: 
#        150
#        23494
#        50699
#        70172
#        105043
#        132651
#        160510
#        193347
#        220437
#        258574
#        301856
#
# Disc length: 4670 seconds
#
# Revision: 0
# Processed by: cddbd v1.5.2PL0 Copyright (c) Steve Scherf et al.
# Submitted via: ExactAudioCopy v0.99pb5
#
DISCID=96123c0b
DTITLE=Sinner Boy - Live At The Spirit Store
DYEAR=2010
DGENRE=Blues
TTITLE0=Continental Op
TTITLE1=Hands Off
TTITLE2=What's Going On
TTITLE3=Philby
TTITLE4=Crest Of A Wave
TTITLE5=Souped-Up Ford
TTITLE6=Bad Penny
TTITLE7=Cruise On Out
TTITLE8=Tattoo'd Lady
TTITLE9=A Million Miles Away
TTITLE10=Shadow Play
EXTD=
EXTT0=
EXTT1=
EXTT2=
EXTT3=
EXTT4=
EXTT5=
EXTT6=
EXTT7=
EXTT8=
EXTT9=
EXTT10=
PLAYORDER=
